<svg xmlns="http://www.w3.org/2000/svg" viewBox="0 0 32 32" fill="none">
  <rect width="32" height="32" rx="4" fill="#F4EFE5"/>
  <rect x="3" y="3" width="26" height="26" rx="2" fill="#FFFFFF" stroke="#0B0B0F" stroke-width="2"/>
  <path
    d="M7 9 H13 C16 9 18 11 18 14 C18 17 16 19 13 19 H10 V24 H7 Z M10 12 V16 H13 C14.3 16 15 15.2 15 14 C15 12.8 14.3 12 13 12 Z"
    fill="#D7263D"
    stroke="#0B0B0F"
    stroke-width="0.8"
    stroke-linejoin="miter"
  />
  <path
    d="M26 12.2 C25.2 10.2 23.4 9 21.2 9 C17.6 9 15 12 15 16 C15 20 17.6 23 21.2 23 C23.5 23 25.2 21.8 26 19.8 L23.1 19 C22.7 20 22 20.4 21.2 20.4 C19.3 20.4 18.1 18.6 18.1 16 C18.1 13.4 19.3 11.6 21.2 11.6 C22 11.6 22.7 12 23.1 13 Z"
    fill="#D7263D"
    stroke="#0B0B0F"
    stroke-width="0.8"
    stroke-linejoin="miter"
  />
  <rect x="24" y="5" width="3" height="3" fill="#E8B339" stroke="#0B0B0F" stroke-width="0.8"/>
</svg>
